<svg id="visual" viewBox="0 0 1920 1500" width="1920" height="1500" xmlns="http://www.w3.org/2000/svg" xmlns:xlink="http://www.w3.org/1999/xlink" version="1.1"><path d="M0 406L53.3 421C106.7 436 213.3 466 320 473.5C426.7 481 533.3 466 640 456C746.7 446 853.3 441 960 413.5C1066.7 386 1173.3 336 1280 356C1386.7 376 1493.3 466 1600 483.5C1706.7 501 1813.3 446 1866.7 418.5L1920 391L1920 0L1866.7 0C1813.3 0 1706.7 0 1600 0C1493.3 0 1386.7 0 1280 0C1173.3 0 1066.7 0 960 0C853.3 0 746.7 0 640 0C533.3 0 426.7 0 320 0C213.3 0 106.7 0 53.3 0L0 0Z" fill="#3399ff"></path><path d="M0 556L53.3 576C106.7 596 213.3 636 320 648.5C426.7 661 533.3 646 640 626C746.7 606 853.3 581 960 543.5C1066.7 506 1173.3 456 1280 478.5C1386.7 501 1493.3 596 1600 616C1706.7 636 1813.3 581 1866.7 553.5L1920 526L1920 389L1866.7 416.5C1813.3 444 1706.7 499 1600 481.5C1493.3 464 1386.7 374 1280 354C1173.3 334 1066.7 384 960 411.5C853.3 439 746.7 444 640 454C533.3 464 426.7 479 320 471.5C213.3 464 106.7 434 53.3 419L0 404Z" fill="#2b83de"></path><path d="M0 706L53.3 721C106.7 736 213.3 766 320 776C426.7 786 533.3 776 640 763.5C746.7 751 853.3 736 960 693.5C1066.7 651 1173.3 581 1280 596C1386.7 611 1493.3 711 1600 733.5C1706.7 756 1813.3 701 1866.7 673.5L1920 646L1920 524L1866.7 551.5C1813.3 579 1706.7 634 1600 614C1493.3 594 1386.7 499 1280 476.5C1173.3 454 1066.7 504 960 541.5C853.3 579 746.7 604 640 624C533.3 644 426.7 659 320 646.5C213.3 634 106.7 594 53.3 574L0 554Z" fill="#226dbf"></path><path d="M0 1096L53.3 1096C106.7 1096 213.3 1096 320 1106C426.7 1116 533.3 1136 640 1133.5C746.7 1131 853.3 1106 960 1073.5C1066.7 1041 1173.3 1001 1280 1008.5C1386.7 1016 1493.3 1071 1600 1086C1706.7 1101 1813.3 1076 1866.7 1063.5L1920 1051L1920 644L1866.7 671.5C1813.3 699 1706.7 754 1600 731.5C1493.3 709 1386.7 609 1280 594C1173.3 579 1066.7 649 960 691.5C853.3 734 746.7 749 640 761.5C533.3 774 426.7 784 320 774C213.3 764 106.7 734 53.3 719L0 704Z" fill="#1859a0"></path><path d="M0 1321L53.3 1313.5C106.7 1306 213.3 1291 320 1296C426.7 1301 533.3 1326 640 1341C746.7 1356 853.3 1361 960 1346C1066.7 1331 1173.3 1296 1280 1288.5C1386.7 1281 1493.3 1301 1600 1301C1706.7 1301 1813.3 1281 1866.7 1271L1920 1261L1920 1049L1866.7 1061.5C1813.3 1074 1706.7 1099 1600 1084C1493.3 1069 1386.7 1014 1280 1006.5C1173.3 999 1066.7 1039 960 1071.5C853.3 1104 746.7 1129 640 1131.5C533.3 1134 426.7 1114 320 1104C213.3 1094 106.7 1094 53.3 1094L0 1094Z" fill="#0c4582"></path><path d="M0 1501L53.3 1501C106.7 1501 213.3 1501 320 1501C426.7 1501 533.3 1501 640 1501C746.7 1501 853.3 1501 960 1501C1066.7 1501 1173.3 1501 1280 1501C1386.7 1501 1493.3 1501 1600 1501C1706.7 1501 1813.3 1501 1866.7 1501L1920 1501L1920 1259L1866.7 1269C1813.3 1279 1706.7 1299 1600 1299C1493.3 1299 1386.7 1279 1280 1286.5C1173.3 1294 1066.7 1329 960 1344C853.3 1359 746.7 1354 640 1339C533.3 1324 426.7 1299 320 1294C213.3 1289 106.7 1304 53.3 1311.5L0 1319Z" fill="#003366"></path></svg>