<svg id="visual" viewBox="0 0 960 540" width="960" height="540" xmlns="http://www.w3.org/2000/svg" xmlns:xlink="http://www.w3.org/1999/xlink" version="1.1"><rect x="0" y="0" width="960" height="540" fill="#FFFAF0"></rect><path d="M0 291L26.7 288C53.3 285 106.7 279 160 295.7C213.3 312.3 266.7 351.7 320 366.3C373.3 381 426.7 371 480 352.5C533.3 334 586.7 307 640 304.2C693.3 301.3 746.7 322.7 800 321.5C853.3 320.3 906.7 296.7 933.3 284.8L960 273L960 541L933.3 541C906.7 541 853.3 541 800 541C746.7 541 693.3 541 640 541C586.7 541 533.3 541 480 541C426.7 541 373.3 541 320 541C266.7 541 213.3 541 160 541C106.7 541 53.3 541 26.7 541L0 541Z" fill="#3399ff"></path><path d="M0 361L26.7 371.7C53.3 382.3 106.7 403.7 160 398.5C213.3 393.3 266.7 361.7 320 359.8C373.3 358 426.7 386 480 391.5C533.3 397 586.7 380 640 375.3C693.3 370.7 746.7 378.3 800 373C853.3 367.7 906.7 349.3 933.3 340.2L960 331L960 541L933.3 541C906.7 541 853.3 541 800 541C746.7 541 693.3 541 640 541C586.7 541 533.3 541 480 541C426.7 541 373.3 541 320 541C266.7 541 213.3 541 160 541C106.7 541 53.3 541 26.7 541L0 541Z" fill="#2574c9"></path><path d="M0 426L26.7 423.3C53.3 420.7 106.7 415.3 160 417.5C213.3 419.7 266.7 429.3 320 423.8C373.3 418.3 426.7 397.7 480 392.2C533.3 386.7 586.7 396.3 640 400.5C693.3 404.7 746.7 403.3 800 401.5C853.3 399.7 906.7 397.3 933.3 396.2L960 395L960 541L933.3 541C906.7 541 853.3 541 800 541C746.7 541 693.3 541 640 541C586.7 541 533.3 541 480 541C426.7 541 373.3 541 320 541C266.7 541 213.3 541 160 541C106.7 541 53.3 541 26.7 541L0 541Z" fill="#145296"></path><path d="M0 474L26.7 470.7C53.3 467.3 106.7 460.7 160 458.7C213.3 456.7 266.7 459.3 320 465.2C373.3 471 426.7 480 480 483.5C533.3 487 586.7 485 640 480.2C693.3 475.3 746.7 467.7 800 466.5C853.3 465.3 906.7 470.7 933.3 473.3L960 476L960 541L933.3 541C906.7 541 853.3 541 800 541C746.7 541 693.3 541 640 541C586.7 541 533.3 541 480 541C426.7 541 373.3 541 320 541C266.7 541 213.3 541 160 541C106.7 541 53.3 541 26.7 541L0 541Z" fill="#003366"></path></svg>