<svg id="visual" viewBox="0 0 1920 1500" width="1920" height="1500" xmlns="http://www.w3.org/2000/svg" xmlns:xlink="http://www.w3.org/1999/xlink" version="1.1"><path d="M1477 1500L1438.7 1458.3C1400.3 1416.7 1323.7 1333.3 1311 1250C1298.3 1166.7 1349.7 1083.3 1346.5 1000C1343.3 916.7 1285.7 833.3 1301.7 750C1317.7 666.7 1407.3 583.3 1416.8 500C1426.3 416.7 1355.7 333.3 1362 250C1368.3 166.7 1451.7 83.3 1493.3 41.7L1535 0L1920 0L1920 41.7C1920 83.3 1920 166.7 1920 250C1920 333.3 1920 416.7 1920 500C1920 583.3 1920 666.7 1920 750C1920 833.3 1920 916.7 1920 1000C1920 1083.3 1920 1166.7 1920 1250C1920 1333.3 1920 1416.7 1920 1458.3L1920 1500Z" fill="#3399ff"></path><path d="M1266 1500L1237.2 1458.3C1208.3 1416.7 1150.7 1333.3 1134.7 1250C1118.7 1166.7 1144.3 1083.3 1134.8 1000C1125.3 916.7 1080.7 833.3 1112.7 750C1144.7 666.7 1253.3 583.3 1259.7 500C1266 416.7 1170 333.3 1163.7 250C1157.3 166.7 1240.7 83.3 1282.3 41.7L1324 0L1536 0L1494.3 41.7C1452.7 83.3 1369.3 166.7 1363 250C1356.7 333.3 1427.3 416.7 1417.8 500C1408.3 583.3 1318.7 666.7 1302.7 750C1286.7 833.3 1344.3 916.7 1347.5 1000C1350.7 1083.3 1299.3 1166.7 1312 1250C1324.7 1333.3 1401.3 1416.7 1439.7 1458.3L1478 1500Z" fill="#2b83de"></path><path d="M1074 1500L1042 1458.3C1010 1416.7 946 1333.3 930 1250C914 1166.7 946 1083.3 933.2 1000C920.3 916.7 862.7 833.3 888.3 750C914 666.7 1023 583.3 1019.8 500C1016.7 416.7 901.3 333.3 898.2 250C895 166.7 1004 83.3 1058.5 41.7L1113 0L1325 0L1283.3 41.7C1241.7 83.3 1158.3 166.7 1164.7 250C1171 333.3 1267 416.7 1260.7 500C1254.3 583.3 1145.7 666.7 1113.7 750C1081.7 833.3 1126.3 916.7 1135.8 1000C1145.3 1083.3 1119.7 1166.7 1135.7 1250C1151.7 1333.3 1209.3 1416.7 1238.2 1458.3L1267 1500Z" fill="#226dbf"></path><path d="M825 1500L796.2 1458.3C767.3 1416.7 709.7 1333.3 696.8 1250C684 1166.7 716 1083.3 712.8 1000C709.7 916.7 671.3 833.3 690.5 750C709.7 666.7 786.3 583.3 786.3 500C786.3 416.7 709.7 333.3 722.5 250C735.3 166.7 837.7 83.3 888.8 41.7L940 0L1114 0L1059.5 41.7C1005 83.3 896 166.7 899.2 250C902.3 333.3 1017.7 416.7 1020.8 500C1024 583.3 915 666.7 889.3 750C863.7 833.3 921.3 916.7 934.2 1000C947 1083.3 915 1166.7 931 1250C947 1333.3 1011 1416.7 1043 1458.3L1075 1500Z" fill="#1859a0"></path><path d="M441 1500L428.2 1458.3C415.3 1416.7 389.7 1333.3 386.3 1250C383 1166.7 402 1083.3 398.8 1000C395.7 916.7 370.3 833.3 386.3 750C402.3 666.7 459.7 583.3 462.8 500C466 416.7 415 333.3 437.5 250C460 166.7 556 83.3 604 41.7L652 0L941 0L889.8 41.7C838.7 83.3 736.3 166.7 723.5 250C710.7 333.3 787.3 416.7 787.3 500C787.3 583.3 710.7 666.7 691.5 750C672.3 833.3 710.7 916.7 713.8 1000C717 1083.3 685 1166.7 697.8 1250C710.7 1333.3 768.3 1416.7 797.2 1458.3L826 1500Z" fill="#0c4582"></path><path d="M0 1500L0 1458.3C0 1416.7 0 1333.3 0 1250C0 1166.7 0 1083.3 0 1000C0 916.7 0 833.3 0 750C0 666.7 0 583.3 0 500C0 416.7 0 333.3 0 250C0 166.7 0 83.3 0 41.7L0 0L653 0L605 41.7C557 83.3 461 166.7 438.5 250C416 333.3 467 416.7 463.8 500C460.7 583.3 403.3 666.7 387.3 750C371.3 833.3 396.7 916.7 399.8 1000C403 1083.3 384 1166.7 387.3 1250C390.7 1333.3 416.3 1416.7 429.2 1458.3L442 1500Z" fill="#003366"></path></svg>